<svg width="180" height="24" viewBox="0 0 180 24" fill="none" xmlns="http://www.w3.org/2000/svg">
<path d="M9.87445 1.03631C9.96774 0.951729 10.2286 0.824528 10.4533 0.753268C10.8435 0.630063 11.1057 0.623403 21.6216 0.613413L21.7667 0.76459C21.847 0.848503 21.9662 1.02166 22.0316 1.14952C22.0976 1.27806 22.2992 1.62237 22.4804 1.91539C22.6615 2.20842 22.8106 2.50079 22.8113 2.56472C22.8127 2.62865 22.8515 2.70391 22.8985 2.73121C22.9455 2.75852 23.0197 2.8411 23.064 2.91436C23.1082 2.98761 23.3561 3.40718 23.6142 3.84672C23.8723 4.28627 24.3599 5.11074 24.6977 5.67815C25.0348 6.24623 25.3977 6.86026 25.5033 7.0434C25.6088 7.22655 25.6906 7.45897 25.6844 7.55953C25.6783 7.66009 25.4951 8.03504 25.2765 8.392C25.0579 8.74896 24.7167 9.32636 24.5179 9.674C24.3197 10.0223 24.0691 10.4339 23.9622 10.5897C23.8546 10.7456 23.7674 10.8801 23.7688 10.8894C23.7702 10.8987 23.5972 11.2057 23.3854 11.572C23.1736 11.9383 22.94 12.3426 22.8665 12.4711C22.7929 12.5996 22.6363 12.854 22.5192 13.0372C22.4014 13.2203 22.2815 13.3775 22.2529 13.3868C22.2243 13.3961 22.2005 13.4487 22.2005 13.5034C22.2005 13.558 22.0071 13.9256 21.7701 14.3192C21.5338 14.7128 21.1926 15.2895 21.0121 15.6012C20.8323 15.9129 20.6042 16.2758 20.5061 16.4083C20.4081 16.5415 20.1745 16.776 19.9872 16.9291C19.8 17.083 19.501 17.2814 19.3233 17.3707C19.1455 17.4599 18.8084 17.5771 18.5742 17.6317C18.216 17.7143 17.3157 17.7296 12.9049 17.7263C10.0209 17.7243 7.60878 17.7023 7.54408 17.6777C7.44466 17.6391 7.53046 17.4566 8.13178 16.4336L8.23083 16.2651C8.60368 15.6307 9.07433 14.8298 9.66062 13.8363L17.4675 13.8044L17.7679 13.2876C17.9327 13.0032 18.3106 12.3665 18.6068 11.8717C18.9031 11.3769 19.1816 10.9127 19.2259 10.8395C19.2701 10.7662 19.3845 10.5864 19.4799 10.4399C19.5752 10.2934 19.6706 10.1282 19.6917 10.0736C19.7128 10.019 20.0758 9.38963 20.498 8.67504C20.9195 7.96112 21.6284 6.75437 22.0731 5.99449C22.5178 5.23461 22.8815 4.59794 22.8815 4.57929C22.8815 4.56131 20.4237 4.55332 11.959 4.57929L11.2058 5.83133C10.7175 6.64382 10.4771 7.10467 10.5214 7.14463C10.5616 7.18059 12.1326 7.20723 14.3179 7.2079C17.823 7.20989 18.0464 7.21656 18.045 7.32644C18.0443 7.39037 17.7188 7.99708 17.3218 8.67504C16.9248 9.353 16.5632 9.95238 16.5176 10.007C16.4719 10.0616 16.3344 10.302 16.2125 10.5398C16.0899 10.7775 15.9394 11.0106 15.8774 11.0572C15.7896 11.1232 14.9165 11.1411 8.03576 11.1391L7.9125 11.3889C7.8444 11.5261 7.70276 11.7885 7.5972 11.9716C7.49165 12.1548 7.36907 12.3499 7.3248 12.4045C7.28122 12.4591 7.20835 12.5797 7.16341 12.6709C7.11846 12.7628 6.99793 12.9779 6.8951 13.1497C6.79227 13.3215 6.20184 14.3185 5.58418 15.3654C4.96652 16.4123 4.34273 17.4706 4.19836 17.717C4.05398 17.9634 3.61679 18.7046 3.22658 19.3639C2.83637 20.0233 2.45841 20.6379 2.38691 20.7292C2.3154 20.8211 2.24322 20.8804 2.22687 20.8624C2.21053 20.8444 2.03007 20.5594 1.82645 20.2297C1.62351 19.9 1.34839 19.4505 1.2156 19.2307C1.08348 19.011 0.756606 18.4569 0.489656 17.9987C0.222706 17.5412 0.00206397 17.1363 2.09814e-05 17.0996C-0.002703 17.063 0.260161 16.5835 0.583634 16.0341C0.907106 15.4846 1.2871 14.84 1.42875 14.6022C1.5704 14.3645 2.04641 13.5546 2.48633 12.8041C2.92626 12.0535 3.36482 11.319 3.46152 11.1724C3.55754 11.0259 3.71008 10.7709 3.79997 10.6064C3.89055 10.4419 4.04105 10.1715 4.13434 10.007C4.22764 9.84249 4.4585 9.4529 4.64645 9.14122C4.8344 8.82955 5.1034 8.38001 5.24436 8.14226C5.38465 7.90451 5.74217 7.30513 6.03772 6.81031C6.33396 6.31549 6.66424 5.74675 6.77115 5.54496C6.87807 5.34317 7.00678 5.13339 7.05649 5.07878C7.1062 5.02417 7.14774 4.95624 7.14843 4.92893C7.14979 4.90163 7.23764 4.73646 7.34455 4.56264C7.45079 4.38883 7.83964 3.73684 8.20805 3.11415C8.57647 2.49146 8.97417 1.84547 9.0913 1.67831C9.20912 1.51181 9.39503 1.33333 9.50467 1.28205C9.61431 1.23077 9.78047 1.12022 9.87445 1.03631Z" fill="#BF0A30"/>
<path d="M33.3206 10.9112V17.7387C33.0577 17.7387 32.8411 17.7311 32.671 17.716C32.006 17.6555 31.6425 17.6252 31.5806 17.6252C31.3177 17.6252 30.9775 17.6404 30.5599 17.6706C30.1423 17.716 29.9026 17.7387 29.8407 17.7387V2.1785H35.5477C38.8574 2.1785 40.5123 3.45628 40.5123 6.01183C40.5123 7.90204 39.8395 9.22518 38.494 9.98126C37.3959 10.6012 35.6714 10.9112 33.3206 10.9112ZM33.3206 3.40335V9.66371C33.6608 9.66371 33.9238 9.65615 34.1094 9.64102C34.2949 9.6259 34.5424 9.58054 34.8517 9.50493C35.5632 9.30835 36.0967 8.91519 36.4525 8.32544C36.7618 7.81131 36.9164 7.1762 36.9164 6.42012C36.9164 5.54306 36.7077 4.82479 36.2901 4.26529C35.888 3.69066 35.3776 3.40335 34.7589 3.40335H33.3206Z" fill="#D62828"/>
<path d="M45.8867 0.5V17.7387C45.6238 17.7084 45.4305 17.6933 45.3067 17.6933C44.7654 17.6479 44.4252 17.6252 44.286 17.6252C43.9457 17.6252 43.6364 17.6404 43.358 17.6706C43.0796 17.7009 42.8554 17.7235 42.6852 17.7387V0.5C42.9482 0.530244 43.242 0.560487 43.5668 0.59073C43.9071 0.605851 44.1468 0.613412 44.286 0.613412C44.6262 0.613412 44.9356 0.598291 45.2139 0.568048C45.4923 0.537805 45.7166 0.515122 45.8867 0.5Z" fill="#D62828"/>
<path d="M54.3618 13.9961V11.7959C53.8979 11.9622 53.5267 12.0907 53.2483 12.1815C52.7379 12.3629 52.3435 12.5671 52.0651 12.7939C51.7867 13.0056 51.5934 13.2627 51.4851 13.5651C51.3769 13.8675 51.3227 14.2304 51.3227 14.6538C51.3227 15.168 51.4155 15.5989 51.6011 15.9467C51.8022 16.2945 52.1347 16.4684 52.5987 16.4684C53.2483 16.4684 53.72 16.2038 54.0138 15.6746C54.2458 15.2512 54.3618 14.6917 54.3618 13.9961ZM57.5633 9.57298V15.7426C57.5633 16.166 57.6406 16.4533 57.7953 16.6045C57.9654 16.7406 58.2825 16.8087 58.7465 16.8087V17.3304C58.4526 17.4665 58.0969 17.6026 57.6793 17.7387C57.2772 17.8748 56.9369 17.9428 56.6585 17.9428C56.1327 17.9428 55.661 17.7991 55.2434 17.5118C54.8413 17.2094 54.5474 16.8011 54.3618 16.287C54.0525 16.8162 53.6349 17.2245 53.1091 17.5118C52.5832 17.7991 52.011 17.9428 51.3923 17.9428C50.4025 17.9428 49.6137 17.6933 49.026 17.1943C48.3919 16.6499 48.0749 15.9014 48.0749 14.9487C48.0749 13.9204 48.4151 13.1568 49.0956 12.6578C49.6524 12.2495 50.7273 11.8563 52.3203 11.4783C52.676 11.3876 52.9622 11.312 53.1787 11.2515C53.5189 11.1456 53.7973 11.0247 54.0138 10.8886C54.1376 10.7676 54.2226 10.6391 54.269 10.503C54.3309 10.3669 54.3618 10.2005 54.3618 10.0039C54.3618 9.47469 54.1298 9.01348 53.6659 8.62032C53.2173 8.21203 52.7147 8.00789 52.1579 8.00789C51.4929 8.00789 50.851 8.18935 50.2324 8.55227C49.722 8.8547 49.4204 9.14201 49.3276 9.4142H49.1652L48.8636 8.05325C49.3895 7.56936 50.0391 7.19888 50.8124 6.94181C51.6011 6.66963 52.3822 6.53353 53.1555 6.53353C54.3154 6.53353 55.2898 6.75279 56.0786 7.19132C57.0684 7.7357 57.5633 8.52959 57.5633 9.57298Z" fill="#D62828"/>
<path d="M61.2984 23.5L64.2447 17.6479L59.5584 6.73767C59.8059 6.73767 60.1384 6.76035 60.556 6.80572C60.9891 6.83596 61.2442 6.85109 61.3216 6.85109C61.569 6.85109 61.9016 6.83596 62.3191 6.80572C62.7522 6.76035 63.0074 6.73767 63.0847 6.73767C63.5332 7.96252 63.9817 9.14957 64.4303 10.2988C64.786 11.191 65.2654 12.3554 65.8686 13.7919L66.7502 11.4783C67.044 10.7071 67.3456 9.92834 67.6549 9.14201C67.9643 8.35569 68.2504 7.55424 68.5133 6.73767L69.4645 6.80572L70.4156 6.73767L68.0725 11.932C67.7013 12.7485 67.1523 14.0036 66.4254 15.6972C65.6985 17.3757 65.1494 18.6686 64.7782 19.5759C64.2988 20.7403 63.7884 22.0483 63.2471 23.5L62.2727 23.432L61.2984 23.5Z" fill="#D62828"/>
<path d="M76.0066 10.2308V17.7387C75.7437 17.7387 75.5272 17.7311 75.357 17.716C74.692 17.6555 74.3286 17.6252 74.2667 17.6252C74.0038 17.6252 73.6635 17.6404 73.2459 17.6706C72.8283 17.716 72.5886 17.7387 72.5267 17.7387V2.1785H81.3656C81.3347 2.34484 81.3038 2.51874 81.2728 2.7002C81.2574 2.88166 81.2496 3.03287 81.2496 3.15385C81.2496 3.2597 81.2651 3.41847 81.296 3.63018C81.327 3.84188 81.3502 4.00822 81.3656 4.12919C80.3294 4.00822 79.471 3.92505 78.7905 3.87969C78.11 3.83432 77.182 3.81164 76.0066 3.81164V8.68836H78.4657C79.007 8.68836 79.4092 8.6808 79.6721 8.66568C79.9505 8.63544 80.4841 8.57495 81.2728 8.48422C81.2419 8.65056 81.211 8.82446 81.18 9.00592C81.1646 9.18738 81.1568 9.33859 81.1568 9.45957C81.1568 9.56542 81.1723 9.72419 81.2032 9.9359C81.2342 10.1476 81.2574 10.3139 81.2728 10.4349C80.7934 10.3895 80.3062 10.3442 79.8113 10.2988C79.3164 10.2535 78.8601 10.2308 78.4425 10.2308H76.0066Z" fill="#D62828"/>
<path d="M83.9407 17.7387V6.73767C84.2037 6.76792 84.4975 6.79816 84.8223 6.8284C85.1626 6.84352 85.4023 6.85109 85.5415 6.85109C85.8817 6.85109 86.191 6.83596 86.4694 6.80572C86.7478 6.77548 86.9721 6.75279 87.1422 6.73767V17.7387C86.8793 17.7084 86.686 17.6933 86.5622 17.6933C86.0209 17.6479 85.6807 17.6252 85.5415 17.6252C85.2012 17.6252 84.8919 17.6404 84.6135 17.6706C84.3351 17.7009 84.1109 17.7235 83.9407 17.7387ZM83.7087 2.58679C83.7087 2.11802 83.8866 1.70217 84.2423 1.33925C84.598 0.976331 85.0234 0.794872 85.5183 0.794872C86.0132 0.794872 86.4462 0.968771 86.8174 1.31657C87.1886 1.66437 87.3742 2.08777 87.3742 2.58679C87.3742 3.07068 87.1886 3.49408 86.8174 3.857C86.4617 4.2048 86.0286 4.3787 85.5183 4.3787C85.0079 4.3787 84.5748 4.2048 84.2191 3.857C83.8789 3.49408 83.7087 3.07068 83.7087 2.58679Z" fill="#D62828"/>
<path d="M90.0495 17.7387V6.73767C90.297 6.76792 90.5754 6.79816 90.8847 6.8284C91.2095 6.84352 91.4492 6.85109 91.6039 6.85109C91.9441 6.85109 92.238 6.83596 92.4854 6.80572C92.7484 6.77548 92.9649 6.75279 93.135 6.73767V8.41617C93.6454 7.84155 94.1712 7.39546 94.7126 7.07791C95.3467 6.71499 96.0117 6.53353 96.7077 6.53353C98.0842 6.53353 99.0585 6.94938 99.6308 7.78106C100.126 8.49178 100.373 9.59566 100.373 11.0927V17.7387C100.11 17.7084 99.9169 17.6933 99.7932 17.6933C99.2519 17.6479 98.9116 17.6252 98.7724 17.6252C98.4322 17.6252 98.1228 17.6404 97.8444 17.6706C97.566 17.7009 97.3418 17.7235 97.1717 17.7387V12.0907C97.1717 10.8659 97.0634 9.99638 96.8469 9.48225C96.553 8.78665 96.0272 8.43886 95.2693 8.43886C94.3878 8.43886 93.8001 8.93787 93.5062 9.9359C93.3361 10.5105 93.251 11.3725 93.251 12.5217V17.7387C92.9881 17.7084 92.7948 17.6933 92.671 17.6933C92.1297 17.6479 91.7895 17.6252 91.6503 17.6252C91.31 17.6252 91.0007 17.6404 90.7223 17.6706C90.4439 17.7009 90.2197 17.7235 90.0495 17.7387Z" fill="#D62828"/>
<path d="M113.218 0.5V17.7387C112.877 17.7084 112.576 17.6782 112.313 17.6479C112.065 17.6328 111.857 17.6252 111.687 17.6252C111.331 17.6252 111.021 17.6404 110.759 17.6706C110.511 17.7009 110.302 17.7235 110.132 17.7387V15.7426C109.591 17.2094 108.531 17.9428 106.954 17.9428C105.361 17.9428 104.17 17.3606 103.381 16.1963C102.716 15.2133 102.384 13.8978 102.384 12.2495C102.384 10.6769 102.747 9.36127 103.474 8.30276C104.278 7.12327 105.407 6.53353 106.861 6.53353C107.588 6.53353 108.214 6.66206 108.74 6.91913C109.266 7.1762 109.691 7.59204 110.016 8.16667V0.5C110.279 0.530244 110.573 0.560487 110.898 0.59073C111.238 0.605851 111.478 0.613412 111.617 0.613412C111.957 0.613412 112.267 0.598291 112.545 0.568048C112.823 0.537805 113.048 0.515122 113.218 0.5ZM108.044 8.00789C107.178 8.00789 106.56 8.54471 106.188 9.61834C105.941 10.3442 105.817 11.2439 105.817 12.3176C105.817 13.3912 105.918 14.2456 106.119 14.8807C106.459 15.9392 107.039 16.4684 107.859 16.4684C108.74 16.4684 109.367 15.9165 109.738 14.8126C109.985 14.0868 110.109 13.1719 110.109 12.068C110.109 11.0398 110.001 10.2005 109.784 9.5503C109.444 8.52202 108.864 8.00789 108.044 8.00789Z" fill="#D62828"/>
<path d="M118.801 11.1607H122.234C122.234 10.2232 122.157 9.47469 122.002 8.91519C121.755 8.00789 121.322 7.55424 120.703 7.55424C119.961 7.55424 119.435 8.00033 119.126 8.8925C118.909 9.51249 118.801 10.2686 118.801 11.1607ZM125.436 12.2495H118.801C118.801 13.5651 119.025 14.5631 119.474 15.2436C119.999 16.0602 120.85 16.4684 122.026 16.4684C122.505 16.4684 122.977 16.3777 123.441 16.1963C123.905 16.0148 124.338 15.7653 124.74 15.4477L125.018 15.6519L124.508 16.9221C123.518 17.6026 122.412 17.9428 121.19 17.9428C119.288 17.9428 117.842 17.4211 116.852 16.3777C115.862 15.3343 115.367 13.8675 115.367 11.9773C115.367 10.3593 115.839 9.05128 116.783 8.05325C117.741 7.04011 119.041 6.53353 120.68 6.53353C122.397 6.53353 123.642 7.07791 124.415 8.16667C125.096 9.11933 125.436 10.4803 125.436 12.2495Z" fill="#D62828"/>
<path d="M127.709 17.7387V6.73767C127.972 6.76792 128.266 6.79816 128.591 6.8284C128.931 6.84352 129.171 6.85109 129.31 6.85109C129.65 6.85109 129.96 6.83596 130.238 6.80572C130.516 6.77548 130.741 6.75279 130.911 6.73767V9.5503C131.189 8.61275 131.591 7.90204 132.117 7.41815C132.767 6.8284 133.625 6.53353 134.692 6.53353C134.646 6.92669 134.615 7.41815 134.599 8.00789C134.584 8.58251 134.576 9.11933 134.576 9.61834L134.367 9.7998C134.228 9.69395 134.05 9.61834 133.834 9.57298C133.617 9.52761 133.401 9.50493 133.184 9.50493C132.658 9.50493 132.202 9.64103 131.816 9.91322C131.444 10.1703 131.189 10.5332 131.05 11.002C130.988 11.1683 130.949 11.3951 130.934 11.6824C130.919 11.9546 130.911 12.2797 130.911 12.6578V17.7387C130.648 17.7084 130.455 17.6933 130.331 17.6933C129.79 17.6479 129.449 17.6252 129.31 17.6252C128.97 17.6252 128.661 17.6404 128.382 17.6706C128.104 17.7009 127.879 17.7235 127.709 17.7387Z" fill="#D62828"/>
<path d="M137.237 11.4329V2.1785C137.499 2.1785 137.84 2.20118 138.257 2.24655C138.675 2.27679 138.915 2.29191 138.977 2.29191C139.239 2.29191 139.456 2.28435 139.626 2.26923C140.291 2.20874 140.655 2.1785 140.716 2.1785V9.64102C140.716 10.2156 140.716 10.7827 140.716 11.3422C140.732 11.9017 140.794 12.4688 140.902 13.0434C141.01 13.6029 141.134 14.0641 141.273 14.427C141.428 14.7748 141.706 15.1377 142.108 15.5158C142.82 16.166 143.701 16.4911 144.753 16.4911C145.851 16.4911 146.71 16.287 147.328 15.8787C147.947 15.4704 148.465 14.7597 148.883 13.7465C149.068 13.308 149.184 12.688 149.231 11.8866C149.277 11.0851 149.3 10.14 149.3 9.05128V2.1785L150.228 2.24655L151.156 2.1785V10.2535C151.156 11.9168 151.048 13.1341 150.831 13.9053C150.491 15.1302 149.78 16.1055 148.697 16.8314C148.109 17.2548 147.436 17.5572 146.679 17.7387C145.921 17.9352 145.132 18.0335 144.312 18.0335C142.704 18.0335 141.343 17.7689 140.229 17.2396C138.884 16.5894 138.01 15.5838 137.608 14.2229C137.484 13.8146 137.391 13.3685 137.329 12.8846C137.268 12.3856 137.237 11.9017 137.237 11.4329Z" fill="#D62828"/>
<path d="M162.601 5.10454H162.253C162.021 4.48455 161.68 4.00066 161.232 3.65286C160.783 3.30506 160.234 3.13116 159.585 3.13116C158.719 3.13116 158.077 3.33531 157.659 3.74359C157.242 4.13675 157.033 4.67357 157.033 5.35404C157.033 6.17061 157.636 6.90401 158.842 7.55424C161.039 8.73373 162.175 9.35371 162.253 9.4142C163.474 10.3517 164.085 11.5615 164.085 13.0434C164.085 14.4951 163.513 15.6897 162.369 16.6272C161.224 17.5648 159.747 18.0335 157.938 18.0335C157.257 18.0335 156.592 17.9504 155.943 17.784C155.308 17.6328 154.728 17.3909 154.203 17.0582C154.388 16.4231 154.527 15.9089 154.62 15.5158C154.713 15.1226 154.798 14.6765 154.875 14.1775H155.316C155.486 14.9638 155.857 15.5763 156.43 16.0148C157.002 16.4533 157.698 16.6726 158.518 16.6726C159.291 16.6726 159.933 16.4684 160.443 16.0602C160.969 15.6519 161.232 15.0697 161.232 14.3136C161.232 13.3458 160.636 12.5444 159.446 11.9093C158.332 11.3346 157.226 10.76 156.128 10.1854C154.922 9.29323 154.319 8.07594 154.319 6.53353C154.319 5.15746 154.767 4.03846 155.664 3.17653C156.638 2.23899 157.976 1.77022 159.678 1.77022C160.451 1.77022 161.178 1.88363 161.858 2.11045C162.554 2.33728 163.049 2.58679 163.343 2.85897C163.173 3.2975 163.041 3.66042 162.949 3.94773C162.794 4.46187 162.678 4.84747 162.601 5.10454Z" fill="#D62828"/>
<path d="M174.363 12.998H168.957C168.462 14.359 168.099 15.3646 167.867 16.0148C167.65 16.6499 167.472 17.2094 167.333 17.6933L166.243 17.6252L165.129 17.6933L171.764 1.97436L172.646 2.04241L173.527 1.97436L180 17.7387C179.722 17.7387 179.343 17.716 178.863 17.6706C178.384 17.6404 178.098 17.6252 178.005 17.6252C177.726 17.6252 177.348 17.6404 176.868 17.6706C176.389 17.716 176.103 17.7387 176.01 17.7387C175.669 16.665 175.407 15.856 175.221 15.3116C174.927 14.4346 174.641 13.6634 174.363 12.998ZM169.584 11.6144H173.829L171.764 6.32939L169.584 11.6144Z" fill="#D62828"/>
</svg>
